<svg xmlns="http://www.w3.org/2000/svg" viewBox="0 0 200 100" style="background:transparent">
  <!-- Sparkles above A -->
  <g fill="white">
    <path d="M 45 15 L 40 25 L 35 15 L 40 5 Z" />
    <path d="M 55 20 L 50 28 L 45 20 L 50 12 Z" transform="scale(0.6)" />
  </g>
  
  <!-- Letter A -->
  <path d="M 30 80 L 50 20 L 70 80 L 60 80 L 55 65 L 45 65 L 40 80 Z" fill="white" />
  <polygon points="50,50 55,50 52.5,35" fill="black" />
  
  <!-- Letter D -->
  <path d="M 80 20 L 80 80 L 130 80 Q 150 80 150 50 Q 150 20 130 20 Z" fill="white" />
  <path d="M 100 30 L 100 70 L 130 70 Q 140 70 140 50 Q 140 30 130 30 Z" fill="black" />
</svg>
